<svg version="1.1" id="Опрос" xmlns="http://www.w3.org/2000/svg" x="0" y="0" viewBox="0 0 167.7 48.3"
     xml:space="preserve">
  <linearGradient id="gradient" x2="4" y2="1">
    <stop class="main-stop" offset="-4.19%"/>
      <stop class="alt-stop" offset="103.11%"/>
  </linearGradient>
    <style type="text/css">
		.main-stop {stop-color: #5864FF}
        .alt-stop {stop-color: #00FAFF;}
	    .st0{fill:url(#gradient)}
        @keyframes mouth {
          0% {
             transform:scale(1,1)  skewX(0deg);
          }
          8.33%, 25% {
            transform:scale(1,1.4) translateY(-2px);
          }
          33.33%, 50% {
            transform:scale(1,1.5) translateY(-3px);
          }
          58.33%, 75%, 83.33%, 100% {
            transform:scale(1,1.3) translateY(-1px)
          }
         100%{
            transform:scale(1,1)
          }
        }

        #mouth {
            animation-name: mouth;
            animation-duration: 12s;
            animation-iteration-count: infinite;
            transform-origin:center;
            animation-timing-function: linear;
        }
    </style>
    <path class="st0"
          d="M25.2 3.7c-.7-.7-1.6-1-2.5-1-.9 0-1.8.3-2.5 1L3.6 20.4c-1.4 1.4-1.4 3.6 0 4.9.9.9 2.1 1.2 3.2.9v11.2c0 4.5 3.7 8.2 8.2 8.2h15.8c4.5 0 8.2-3.7 8.2-8.2V26.3c1.1.2 2.2-.1 3-1 1.4-1.4 1.4-3.6 0-4.9L25.2 3.7zm5.5 37.9H15c-2.3 0-4.2-1.9-4.2-4.2V23l12-12L35 23.2v14.3c-.1 2.3-2 4.1-4.3 4.1z"/>
    <path class="st0"
          d="M29.3 23.7c-1.4 0-2.5 1.1-2.5 2.5s1.1-.6 2.5-.6 2.5 2 2.5.6-1.1-2.5-2.5-2.5zM18.5 26.2c0-1.4-1.1-2.5-2.5-2.5s-2.5 1.1-2.5 2.5 1.1-.6 2.5-.6c1.3-.1 2.5 1.9 2.5.6z"/>
    <path class="st0" d="M22.9 36.9c3.7 0 7-1.9 8.9-4.7H13.9c2 2.9 5.2 4.7 9 4.7z"
          style="animation-name:mouth;animation-duration:12s;animation-iteration-count:infinite;transform-origin:center;animation-timing-function:linear"/>
    <path class="st0"
          d="M55.7 26c.4-.6.9-1 1.5-1.4.6-.3 1.3-.5 2.2-.5.5 0 .9.1 1.3.2s.8.2 1.2.4c.4.1.7.3 1.1.4.4.1.7.2 1.1.2.3 0 .7-.1.9-.3.3-.2.5-.4.7-.7.2-.3.3-.6.4-.9.1-.3.2-.6.2-1 0-.7-.3-1.3-.8-1.8s-1.2-.9-1.9-1.2c-.7-.3-1.5-.5-2.4-.6-.9-.1-1.6-.2-2.1-.2-1.6 0-3 .3-4.3 1-1.3.6-2.4 1.5-3.3 2.5-.9 1-1.7 2.3-2.2 3.6-.5 1.4-.8 2.8-.8 4.3s.3 3 .8 4.4c.5 1.4 1.2 2.6 2.1 3.6.9 1 2.1 1.9 3.4 2.4 1.3.6 2.8.9 4.3.9.5 0 1.2-.1 2-.2s1.6-.4 2.4-.7c.8-.3 1.4-.7 2-1.2.5-.5.8-1.2.8-1.9s-.2-1.3-.7-1.8c-.5-.5-1.1-.8-1.8-.8-.2 0-.4.1-.8.2-.3.1-.7.2-1.1.4-.4.2-.9.3-1.3.4-.5.1-.9.2-1.2.2-.8 0-1.5-.2-2.1-.5-.6-.3-1.1-.8-1.5-1.4-.4-.6-.8-1.2-1-1.9-.2-.7-.3-1.4-.3-2.2 0-.8.1-1.5.3-2.2.2-.5.5-1.1.9-1.7zM85.8 22.2c-.9-1.1-2.1-1.9-3.4-2.5-1.3-.6-2.7-1-4.3-1-1.6 0-3 .3-4.3 1-1.3.6-2.4 1.5-3.4 2.5-.9 1-1.6 2.3-2.2 3.6-.5 1.4-.8 2.8-.8 4.3s.3 3 .8 4.4c.5 1.4 1.2 2.6 2.1 3.6.9 1 2.1 1.9 3.4 2.4 1.3.6 2.8.9 4.3.9 1.6 0 3-.3 4.3-.9 1.3-.6 2.4-1.4 3.4-2.4.9-1 1.6-2.3 2.1-3.6.5-1.4.8-2.8.8-4.4 0-1.5-.3-2.9-.8-4.3-.4-1.3-1.1-2.5-2-3.6zm-3.3 10.1c-.2.7-.5 1.4-.9 1.9-.4.6-.9 1-1.4 1.4-.6.4-1.3.6-2.1.6s-1.5-.2-2.1-.6c-.6-.3-1.1-.8-1.4-1.4-.4-.6-.7-1.2-.9-1.9-.2-.7-.3-1.4-.3-2.1 0-.7.1-1.4.3-2.1s.5-1.4.8-2c.4-.6.9-1 1.4-1.4.6-.4 1.3-.6 2.1-.6s1.5.2 2.1.6c.6.4 1.1.8 1.4 1.4.4.6.7 1.2.8 2 .2.7.3 1.4.3 2.1.2.7.1 1.4-.1 2.1zM94.1 11.4c-.9 0-1.6.3-2.1.9-.6.6-.8 1.4-.8 2.4v23.6c0 1 .3 1.8.8 2.4.5.6 1.2.9 2.1.9s1.6-.3 2.1-.9c.6-.6.8-1.4.8-2.4V14.7c0-1-.3-1.8-.8-2.4-.5-.6-1.2-.9-2.1-.9zM116.7 20.5c-1.4-1.1-3.5-1.7-6.3-1.7-.9 0-1.8.1-2.7.4-1 .2-1.8.6-2.6 1s-1.5.9-2 1.4c-.5.5-.8 1.1-.8 1.7 0 .6.2 1.1.6 1.7.4.5 1.1.8 2 .8.4 0 .7-.1 1-.3.3-.2.7-.5 1.1-.7.4-.2.9-.5 1.4-.7.6-.2 1.3-.3 2.1-.3s1.5.1 1.9.4c.5.2.7.6.7 1.2V27c-1.4 0-2.8.1-4.4.2-1.6.2-3 .5-4.4 1-1.4.5-2.5 1.3-3.4 2.3-.9 1-1.3 2.4-1.3 4.1 0 1.1.2 2.2.6 3.1.4.9 1 1.6 1.7 2.2.7.6 1.6 1 2.6 1.3 1 .3 2.1.5 3.3.5.5 0 1-.1 1.5-.2.6-.1 1.1-.2 1.6-.4s1-.5 1.4-.8c.4-.3.8-.7 1-1.1.2.9.6 1.6 1.1 1.9.5.3 1.1.5 1.7.5.9 0 1.6-.3 2.1-.9.5-.6.8-1.4.8-2.2V25.4c-.1-2.2-.8-3.8-2.3-4.9zm-3.4 11.7c0 1.4-.4 2.5-1.1 3.3-.7.8-1.8 1.2-3.4 1.2-.4 0-.9 0-1.3-.1s-.8-.2-1.2-.4c-.3-.2-.6-.4-.8-.6-.2-.3-.3-.6-.3-1 0-.9.3-1.6.8-2 .5-.5 1.1-.8 1.9-1 .8-.2 1.6-.3 2.6-.3h2.8v.9zM141.6 22.4c-.8-1.1-1.8-2-3-2.6-1.2-.7-2.6-1-4.2-1-2.1 0-4 .7-5.6 2v-6.1c0-1-.3-1.8-.8-2.4-.5-.6-1.2-.9-2.1-.9s-1.6.3-2.1.9c-.6.6-.8 1.4-.8 2.4v23.7c0 1 .3 1.8.8 2.4.5.6 1.2.9 2.1.9.8 0 1.5-.3 2-.8s.8-1.2 1-2c.5.9 1.3 1.6 2.4 2 1 .5 2 .7 3 .7 1.5 0 2.8-.3 4-1 1.2-.6 2.2-1.5 3.1-2.5.9-1 1.5-2.2 2-3.6.5-1.3.7-2.7.7-4.1 0-1.4-.2-2.8-.6-4.2-.5-1.4-1.1-2.7-1.9-3.8zm-3.8 9.9c-.2.7-.5 1.3-.8 1.9-.4.6-.9 1-1.4 1.4-.6.4-1.3.6-2 .6-.8 0-1.5-.2-2.1-.6-.6-.4-1-.9-1.4-1.4-.4-.6-.7-1.3-.8-2-.2-.7-.2-1.4-.2-2.2 0-.7.1-1.4.3-2.1.2-.7.5-1.3.8-1.9.4-.5.9-1 1.4-1.3.6-.3 1.3-.5 2.1-.5.7 0 1.4.2 2 .6.6.4 1 .8 1.4 1.4.4.6.7 1.2.8 2s.3 1.4.3 2.1c-.1.6-.2 1.3-.4 2zM162.9 20.5c-1.4-1.1-3.5-1.7-6.3-1.7-.9 0-1.8.1-2.7.4-1 .2-1.8.6-2.6 1s-1.5.9-2 1.4c-.5.5-.8 1.1-.8 1.7 0 .6.2 1.1.6 1.7.4.5 1.1.8 2 .8.4 0 .7-.1 1-.3.3-.2.7-.5 1.1-.7.4-.2.9-.5 1.4-.7.6-.2 1.3-.3 2.1-.3s1.5.1 1.9.4c.5.2.7.6.7 1.2V27c-1.4 0-2.8.1-4.4.2-1.6.2-3 .5-4.4 1-1.4.5-2.5 1.3-3.4 2.3-.9 1-1.3 2.4-1.3 4.1 0 1.1.2 2.2.6 3.1.4.9 1 1.6 1.7 2.2.7.6 1.6 1 2.6 1.3 1 .3 2.1.5 3.3.5.5 0 1-.1 1.5-.2.6-.1 1.1-.2 1.6-.4s1-.5 1.4-.8c.4-.3.8-.7 1-1.1.2.9.6 1.6 1.1 1.9.5.3 1.1.5 1.7.5.9 0 1.6-.3 2.1-.9.5-.6.8-1.4.8-2.2V25.4c-.1-2.2-.8-3.8-2.3-4.9zm-3.4 11.7c0 1.4-.4 2.5-1.1 3.3-.7.8-1.8 1.2-3.4 1.2-.4 0-.9 0-1.3-.1s-.8-.2-1.2-.4c-.3-.2-.6-.4-.8-.6-.2-.3-.3-.6-.3-1 0-.9.3-1.6.8-2 .5-.5 1.1-.8 1.9-1 .8-.2 1.6-.3 2.6-.3h2.8v.9z"/>
</svg>
