<?xml version="1.0" encoding="utf-8"?>
<!-- Generator: Adobe Illustrator 24.0.1, SVG Export Plug-In . SVG Version: 6.00 Build 0)  -->
<svg version="1.1" id="Layer_1" xmlns="http://www.w3.org/2000/svg" xmlns:xlink="http://www.w3.org/1999/xlink" x="0px" y="0px"
	 viewBox="0 0 211.41 61.48" style="enable-background:new 0 0 211.41 61.48;" xml:space="preserve">
<style type="text/css">
	.st0{fill:#07C599;}
	.st1{fill:#516CFC;}
	.st2{opacity:0.74;fill:#AC51FF;}
</style>
<g>
	<path class="st0" d="M18.97,10.94h2.49V8.45c0-0.42,0.34-0.76,0.76-0.76s0.76,0.34,0.76,0.76v2.49h2.49c0.42,0,0.76,0.34,0.76,0.76
		c0,0.42-0.34,0.76-0.76,0.76h-2.49v2.49c0,0.42-0.34,0.76-0.76,0.76s-0.76-0.34-0.76-0.76v-2.49h-2.49c-0.42,0-0.76-0.34-0.76-0.76
		v0C18.22,11.28,18.56,10.94,18.97,10.94z"/>
	<path class="st0" d="M203.75,56.16h2.49v-2.49c0-0.42,0.34-0.76,0.76-0.76s0.76,0.34,0.76,0.76v2.49h2.49
		c0.42,0,0.76,0.34,0.76,0.76c0,0.42-0.34,0.76-0.76,0.76h-2.49v2.49c0,0.42-0.34,0.76-0.76,0.76s-0.76-0.34-0.76-0.76v-2.49h-2.49
		c-0.42,0-0.76-0.34-0.76-0.76v0C203,56.5,203.34,56.16,203.75,56.16z"/>
	<path class="st0" d="M87.13,22.21h3.73v-3.73c0-0.63,0.51-1.13,1.13-1.13c0.63,0,1.13,0.51,1.13,1.13v3.73h3.73
		c0.63,0,1.13,0.51,1.13,1.13c0,0.63-0.51,1.13-1.13,1.13h-3.73v3.73c0,0.63-0.51,1.13-1.13,1.13c-0.63,0-1.13-0.51-1.13-1.13v-3.73
		h-3.73c-0.63,0-1.13-0.51-1.13-1.13v0C86,22.71,86.51,22.21,87.13,22.21z"/>
	<path class="st1" d="M55.46,4.98h2.49V2.49c0-0.42,0.34-0.76,0.76-0.76s0.76,0.34,0.76,0.76v2.49h2.49c0.42,0,0.76,0.34,0.76,0.76
		c0,0.42-0.34,0.76-0.76,0.76h-2.49v2.49c0,0.42-0.34,0.76-0.76,0.76s-0.76-0.34-0.76-0.76V6.49h-2.49c-0.42,0-0.76-0.34-0.76-0.76
		v0C54.71,5.32,55.05,4.98,55.46,4.98z"/>
	<path class="st2" d="M201.64,20.1h2.49v-2.49c0-0.42,0.34-0.76,0.76-0.76s0.76,0.34,0.76,0.76v2.49h2.49
		c0.42,0,0.76,0.34,0.76,0.76c0,0.42-0.34,0.76-0.76,0.76h-2.49v2.49c0,0.42-0.34,0.76-0.76,0.76s-0.76-0.34-0.76-0.76v-2.49h-2.49
		c-0.42,0-0.76-0.34-0.76-0.76v0C200.89,20.43,201.22,20.1,201.64,20.1z"/>
	<path class="st1" d="M169.2,11.83h2.49V9.34c0-0.42,0.34-0.76,0.76-0.76s0.76,0.34,0.76,0.76v2.49h2.49c0.42,0,0.76,0.34,0.76,0.76
		c0,0.42-0.34,0.76-0.76,0.76h-2.49v2.49c0,0.42-0.34,0.76-0.76,0.76s-0.76-0.34-0.76-0.76v-2.49h-2.49c-0.42,0-0.76-0.34-0.76-0.76
		v0C168.44,12.17,168.78,11.83,169.2,11.83z"/>
	<path class="st2" d="M57.51,34.29h3.73v-3.73c0-0.63,0.51-1.13,1.13-1.13c0.63,0,1.13,0.51,1.13,1.13v3.73h3.73
		c0.63,0,1.13,0.51,1.13,1.13c0,0.63-0.51,1.13-1.13,1.13h-3.73v3.73c0,0.63-0.51,1.13-1.13,1.13c-0.63,0-1.13-0.51-1.13-1.13v-3.73
		h-3.73c-0.63,0-1.13-0.51-1.13-1.13v0C56.38,34.8,56.89,34.29,57.51,34.29z"/>
	<path class="st2" d="M122.49,5.43h3.73V1.7c0-0.63,0.51-1.13,1.13-1.13c0.63,0,1.13,0.51,1.13,1.13v3.73h3.73
		c0.63,0,1.13,0.51,1.13,1.13c0,0.63-0.51,1.13-1.13,1.13h-3.73v3.73c0,0.63-0.51,1.13-1.13,1.13c-0.63,0-1.13-0.51-1.13-1.13V7.7
		h-3.73c-0.63,0-1.13-0.51-1.13-1.13v0C121.35,5.94,121.86,5.43,122.49,5.43z"/>
	<circle class="st1" cx="82.8" cy="53.77" r="2.5"/>
	<circle class="st1" cx="98.96" cy="4.72" r="2.5"/>
	<circle class="st1" cx="38.19" cy="26.16" r="2.5"/>
	<circle class="st1" cx="195.69" cy="36.55" r="2.5"/>
	<circle class="st1" cx="1.91" cy="5.88" r="1.5"/>
</g>
</svg>
